<svg data-v-5008d405="" version="1.0" xmlns="http://www.w3.org/2000/svg"
     xmlns:xlink="http://www.w3.org/1999/xlink" width="60" height="60" viewBox="0 0 220 240"
     style="background: #fff;margin: auto;">
    <g data-v-5008d405="" fill="#333" class="icon-text-wrapper icon-svg-group iconsvg"
       transform="translate(6,30)">
        <g class="iconsvg-imagesvg" transform="matrix(1,0,0,1,35.49500274658203,0)" opacity="1">
            <rect fill="#333" fill-opacity="0" stroke-width="2" x="0" y="0" width="138" height="158.54916753617786"
                  class="image-rect"></rect>
            <svg x="0" y="0" width="138" height="158.54916753617786" filtersec="colorsb9522259959"
                 class="image-svg-svg primary">
                <svg xmlns="http://www.w3.org/2000/svg" viewBox="0 0 73.2 84.1">
                    <title>资源 18</title>
                    <path fill="none" d="M9.15 36.98L0 42.26l9.18 5.3 9.15-5.28-9.18-5.3z"></path>
                    <path
                            d="M36.54 10.6h.12l9.15-5.28L36.6 0l-9.21 5.32-9.15 5.28-9.12 5.27L0 21.13l9.15 5.28 9.12-5.26 9.12-5.27zm18.46 0l-9.15 5.28-9.15 5.29h-.12l-9.12 5.26-9.16 5.26L27.48 37l9.12-5.27 9.18-5.3 9.15-5.28 9.15-5.28z"
                            fill="#008fb4"></path>
                    <path fill="none" d="M36.6 21.13l-.06.04.06.03v-.07zM36.6 21.2l.06-.03-.06-.04v.07z"></path>
                    <path d="M0 31.69v10.53l36.6 21.13V52.82zM0 63l36.6 21.1V74L0 52.86z" fill="#6c2887"></path>
                    <path
                            d="M64.05 26.41V37l9.15-5.29V21.13zm0 42.26l9.15-5.28V52.86l-9.15 5.28zm0-10.53l9.15-5.28V31.69L64.05 37zM45.72 79.26L54.9 74V42.26l-9.18 5.3zm0-31.7l9.18-5.3V31.69L45.72 37z"
                            fill="#d92231"></path>
                </svg>
            </svg> <!---->
        </g>
        <g transform="translate(0,165.54916381835938)">
            <g data-gra="path-name" class="tp-name iconsvg-namesvg" opacity="1"
               transform="matrix(1,0,0,1,0,0)">
                <g>
                    <path
                            d="M24.84 0L24.84 0L24.80 0.04L18.70 0.04L18.66 0L15.17-5.69Q14.91-5.65 14.65-5.65L14.65-5.65L7.85-5.65L7.85 0Q7.85 0.04 7.81 0.04L7.81 0.04L2.64 0.04Q2.60 0.04 2.60 0L2.60 0L2.60-25.99L-2.57-25.99Q-2.60-25.99-2.60-25.99L-2.60-25.99L-2.60-31.19Q-2.60-31.23-2.57-31.23L-2.57-31.23L2.64-31.23Q2.64-31.23 2.64-31.19L2.64-31.19L2.64-26.03L14.65-26.03Q16.77-26.03 18.63-25.23Q20.49-24.43 21.86-23.05Q23.24-21.68 24.04-19.82Q24.84-17.96 24.84-15.84L24.84-15.84Q24.84-13.27 23.65-11.04Q22.46-8.81 20.30-7.36L20.30-7.36L24.84 0ZM7.85-10.93L14.65-10.93Q16.25-10.93 17.51-11.82L17.51-11.82Q18.48-12.53 19.04-13.59Q19.59-14.65 19.59-15.84L19.59-15.84Q19.59-16.88 19.20-17.77Q18.81-18.66 18.14-19.33Q17.47-20.00 16.58-20.39Q15.69-20.78 14.65-20.78L14.65-20.78L7.85-20.78L7.85-10.93ZM39.30 0.04L30.12 0.04Q30.08 0.04 30.08 0L30.08 0L30.08-25.99Q30.08-26.03 30.12-26.03L30.12-26.03L39.30-26.03Q41.98-26.03 44.36-25.00Q46.74-23.98 48.50-22.22Q50.27-20.45 51.29-18.07Q52.31-15.69 52.31-13.01L52.31-13.01Q52.31-10.30 51.29-7.94Q50.27-5.58 48.50-3.79Q46.74-2.01 44.36-0.99Q41.98 0.04 39.30 0.04L39.30 0.04ZM35.32-20.78L35.32-5.24L39.30-5.24Q40.90-5.24 42.31-5.84Q43.72-6.43 44.78-7.49Q45.84-8.55 46.46-9.96Q47.07-11.38 47.07-13.01L47.07-13.01Q47.07-14.61 46.46-16.02Q45.84-17.44 44.78-18.50Q43.72-19.56 42.31-20.17Q40.90-20.78 39.30-20.78L39.30-20.78L35.32-20.78ZM56.14-15.62L71.72-15.62Q71.76-15.62 71.76-15.62L71.76-15.62L71.76-10.41Q71.76-10.37 71.72-10.37L71.72-10.37L56.14-10.37Q56.11-10.37 56.11-10.41L56.11-10.41L56.11-15.62Q56.11-15.62 56.14-15.62L56.14-15.62ZM75.59-20.82L79.57-20.82Q81.20-20.82 82.62-20.21Q84.03-19.59 85.11-18.53Q86.18-17.47 86.80-16.04Q87.41-14.61 87.41-13.01L87.41-13.01Q87.41-11.38 86.80-9.95Q86.18-8.51 85.11-7.45Q84.03-6.40 82.62-5.78Q81.20-5.17 79.57-5.17L79.57-5.17L75.59-5.17Q75.55-5.17 75.55-5.21L75.55-5.21L75.55-20.78Q75.55-20.82 75.59-20.82L75.59-20.82ZM114.78-20.78L97.79-20.78L97.79-15.62L109.57-15.62Q109.61-15.62 109.61-15.62L109.61-15.62L109.61-10.41Q109.61-10.37 109.57-10.37L109.57-10.37L97.79-10.37L97.79-5.24L114.78-5.24Q114.78-5.24 114.78-5.21L114.78-5.21L114.78 0Q114.78 0.04 114.78 0.04L114.78 0.04L92.58 0.04Q92.54 0.04 92.54 0L92.54 0L92.54-13.01Q92.54-15.69 91.52-18.05Q90.50-20.41 88.73-22.18Q86.97-23.94 84.60-24.97Q82.24-25.99 79.57-25.99L79.57-25.99Q79.53-25.99 79.53-25.99L79.53-25.99Q79.53-26.03 79.57-26.03L79.57-26.03L92.58-26.03L92.58-26.03L114.78-26.03Q114.78-26.03 114.78-25.99L114.78-25.99L114.78-20.78Q114.78-20.78 114.78-20.78L114.78-20.78ZM126.56-5.24L133.14-5.24Q134.22-5.24 134.97-5.99Q135.71-6.73 135.71-7.81L135.71-7.81Q135.71-8.89 134.97-9.63Q134.22-10.37 133.14-10.37L133.14-10.37L126.56-10.37Q124.93-10.37 123.50-10.99Q122.06-11.60 121.00-12.66Q119.95-13.72 119.33-15.15Q118.72-16.58 118.72-18.22L118.72-18.22Q118.72-19.82 119.33-21.25Q119.95-22.68 121.00-23.74Q122.06-24.80 123.50-25.41Q124.93-26.03 126.56-26.03L126.56-26.03L133.14-26.03Q134.78-26.03 136.19-25.41Q137.61-24.80 138.67-23.74Q139.73-22.68 140.36-21.25Q140.99-19.82 140.99-18.22L140.99-18.22Q140.99-18.18 140.95-18.18L140.95-18.18L135.75-18.18Q135.71-18.18 135.71-18.22L135.71-18.22Q135.71-19.26 134.97-20.02Q134.22-20.78 133.14-20.78L133.14-20.78L126.56-20.78Q125.48-20.78 124.72-20.02Q123.96-19.26 123.96-18.22L123.96-18.22Q123.96-17.14 124.72-16.38Q125.48-15.62 126.56-15.62L126.56-15.62L133.14-15.62Q134.78-15.62 136.19-15.00Q137.61-14.39 138.67-13.33Q139.73-12.27 140.36-10.84Q140.99-9.41 140.99-7.81L140.99-7.81Q140.99-6.17 140.36-4.76Q139.73-3.35 138.67-2.27Q137.61-1.19 136.19-0.58Q134.78 0.04 133.14 0.04L133.14 0.04L126.56 0.04Q124.93 0.04 123.50-0.58Q122.06-1.19 121.00-2.27Q119.95-3.35 119.33-4.76Q118.72-6.17 118.72-7.81L118.72-7.81Q118.72-7.81 118.76-7.81L118.76-7.81L123.96-7.81Q123.96-7.81 123.96-7.81L123.96-7.81Q123.96-6.73 124.72-5.99Q125.48-5.24 126.56-5.24L126.56-5.24ZM151.44 0.04L146.23 0.04Q146.19 0.04 146.19 0L146.19 0L146.19-25.99Q146.19-26.03 146.23-26.03L146.23-26.03L151.44-26.03Q151.44-26.03 151.44-25.99L151.44-25.99L151.44 0Q151.44 0.04 151.44 0.04L151.44 0.04ZM168.47-0.04L168.47-0.04Q166.20-0.26 164.15-1.21Q162.11-2.16 160.51-3.79L160.51-3.79Q158.65-5.65 157.66-8.01Q156.68-10.37 156.68-13.01L156.68-13.01Q156.68-15.62 157.66-17.98Q158.65-20.34 160.51-22.20L160.51-22.20Q162.37-24.06 164.73-25.04Q167.09-26.03 169.69-26.03L169.69-26.03Q172.33-26.03 174.69-25.04Q177.05-24.06 178.91-22.20L178.91-22.20Q178.95-22.20 178.91-22.16L178.91-22.16L175.23-18.48Q175.23-18.48 175.20-18.48L175.20-18.48Q174.08-19.59 172.69-20.19Q171.29-20.78 169.69-20.78L169.69-20.78Q168.13-20.78 166.72-20.19Q165.31-19.59 164.23-18.48L164.23-18.48Q163.07-17.36 162.50-15.93Q161.92-14.50 161.92-13.01Q161.92-11.53 162.50-10.08Q163.07-8.63 164.23-7.51L164.23-7.51Q165.16-6.54 166.33-5.99Q167.50-5.43 168.74-5.28Q169.99-5.13 171.25-5.39Q172.52-5.65 173.67-6.32L173.67-6.32L173.67-13.01Q173.67-13.01 173.71-13.01L173.71-13.01L178.91-13.01Q178.91-13.01 178.91-13.01L178.91-13.01L178.91-3.79L178.91-3.79Q177.98-2.86 176.91-2.12L176.91-2.12Q175.31-1.08 173.47-0.52Q171.63 0.04 169.69 0.04L169.69 0.04Q169.10 0.04 168.47-0.04ZM189.36 0.04L184.19 0.04Q184.16 0.04 184.16 0L184.16 0L184.16-25.99Q184.16-26.03 184.19-26.03L184.19-26.03L190.29-26.03L190.33-26.03L201.15-8.51L201.15-25.99Q201.15-26.03 201.18-26.03L201.18-26.03L206.39-26.03Q206.39-26.03 206.39-25.99L206.39-25.99L206.39 0Q206.39 0.04 206.39 0.04L206.39 0.04L200.26 0.04L200.26 0L189.40-17.51L189.40 0Q189.40 0.04 189.36 0.04L189.36 0.04Z"
                            transform="translate(2.6026511477529906, 31.23181377303589)"></path>
                </g> <!----> <!----> <!----> <!----> <!----> <!----> <!---->
            </g> <!---->
        </g>
    </g>
</svg>
